<?xml version="1.0" encoding="utf-8"?>
<!-- Generator: Adobe Illustrator 25.0.0, SVG Export Plug-In . SVG Version: 6.00 Build 0)  -->
<svg version="1.1" id="Layer_1" xmlns="http://www.w3.org/2000/svg" xmlns:xlink="http://www.w3.org/1999/xlink" x="0px" y="0px"
	 viewBox="0 0 204.9 288.5" style="enable-background:new 0 0 204.9 288.5;" xml:space="preserve">
<style type="text/css">
	.st0{fill:#FFFFFF;stroke:#1D1D1B;stroke-miterlimit:10;}
</style>
<path class="st0" d="M195.8,276.6l7-6.2l-24-35.5l-44-6.4l4.9-8.2l-21.6,8.5l1.9-31l12.1-24.3l5.9,4.4l7.7-58.1h8.7l-10.9-15.6
	L139,93.6l3.6-4.4l16.3,5.9l17.5-3.7l1.6-0.9l0,0l8.1-6l-10.2-6.8l-15.4-16.6l-1.4-9.9l-0.2-1.5l-1.3-1.5l-10.7-12.9l11-35.4
	l-14.1,13L124,21.1l-9.7,3.5l-2.6,0.9l-0.9,0.5L79.6,41.9l3.7,4.1L63,66.4l11.7-2L50.9,112l-32.5,57.6l5.7-2.1l-21,49.3l8.2-7.4
	L0,247.7l18.5,38.5l1.1,2.2h1.6h44.5h3.9h18.3l4.4-11.3l4.3-2.1l3.2,13.4H111h3.9h16.3l41,0.1h1.1l2.4-0.5l29.2-5.5L195.8,276.6z
	 M94.9,210.3l4.3,25.8l0,0l0.1,0.7l1.3,4.2l0,0l5.4,17.3l3.6,11.7l-10.3,0.8l1-12.9l-13.8-68.6L94.9,210.3z M121,270.1l4.2,4.3
	l-8.2-3L121,270.1z M114.5,230.1l-1.1,17.2l5.9,19.9l-6.4,2.1l-10.2-32.9l13.2-29.9L114.5,230.1L114.5,230.1z M120.4,189.2l-3.7,7.4
	l-15,33.9l0,0l-3.5-20.9L83.5,172l33.1-10.1l12.7,9.5L120.4,189.2z M142.6,116.4l-7.3,55.4l-18.1-13.5l-32.6,9.9l16.1-31.3
	l15.5-30.2H141l6.8,9.7C147.8,116.4,142.6,116.4,142.6,116.4z M134.9,93l4.4,10.3h-23L102.8,70l8.7-24.1l13.7,19.4l-0.4,9l-0.3,7.2
	l-0.1,2.4l0,0l0,0l1.8,0.5l12.9,3.6L134.9,93z M151.4,56.5l0.8,5.1l-0.7,0.8l-3.4-3.8C149,58.1,150.2,57.3,151.4,56.5z M158.9,91.6
	l-14.3-5.2l0.1-0.1l-11.4-3.2l-2-0.6l10.4-4l10.8,7.3l8,5.5L158.9,91.6z M180.1,84.6l-2.8,2l0,0l-0.6-4.3l0,0L180.1,84.6z
	 M173.1,79.7L173.1,79.7l1.1,8.3h-12.6l-19.5-13.3l-14.3,5.5l0.3-7.3l0.3-6.9l16.4-5.9l6.6,7.2l4.3-4.7l-1.2-8.3
	c0.5-0.3,1-0.7,1.4-1l1.4,9.2L173.1,79.7z M150.9,10.9L150.9,10.9l-7.4,23.8l0,0c-4,2.8-8.3,5.7-10.5,7.2c-0.5-2.6-1.3-7.8-1.9-12.7
	L150.9,10.9z M125.2,24.3l11.5-4.7l0,0l-9.1,8.4l0.1,0.8l0,0l2.9,16.4c0.2,0.4,0.4,0.5,0.6,0.7l0.7,0.4l0.8-0.2
	c0.1,0,0.1-0.1,0.3-0.2l11.6-7.8l0,0l10.1,12.2l-3.2,2.3c-3.2,2.2-6,4-6.7,4.3c-1.4,0.5-13.4,4.8-17.3,6.3l-14.8-21l1.2-13.6
	L125.2,24.3z M25.7,163.4l28.1-49.8L80.6,60l-7.8,1.3L88,46.1l-2.9-3.2L110.4,30l-1.1,11.6v0.5l-10.1,28l14.1,34.8l-17.8,34.5
	L81,167.6l-13.2-19.3l-42,15l0,0L25.7,163.4z M12.1,204l16.2-38.1l38.2-13.6L79.3,171l-1.4,2.6l0,0l-15,29.4l-26.6-20.6l-0.2-0.1
	l0,0l0,0l-22.6,20.5l-0.5,0.4L12.1,204z M3.6,247.4L16,205.1l20.3-18.4L57.4,203l14.9,26.6l-15.4,29.7l-7.5,5.3l-28.1,19.6
	L3.6,247.4z M25.9,285l23.5-16.4l5.6-3.9l-1.9,5.7l0,0l-2.4,7l20.7,1.6l-3.7,6.1H25.9V285z M55.5,273.4l14.9-2.5h8.9l-5.7,5
	l-18.4-1.4L55.5,273.4z M85.5,285h-14l0.8-1.3l3.1-5.1l8.3-7.2l5.2,4.9L85.5,285z M91.1,273.9l-1.4-1.3l-3.5-3.3l-1.3-1.3l0,0
	l-0.5-0.4h-1.3h-13l-13.4,2.2l3-8.7L76,229.5L64,208l16.5-32.2L97.1,258l-1,12l-0.1,1v0.5l-0.3,0.2l-1.9,0.9L91.1,273.9z M102.3,285
	l-2.3-9.5l4.3,2l4.6,7.5H102.3z M112.8,285l-6.2-10.1l-2.7-1.3l6.7-0.5l1-0.1l0.2,0.1l17.8,6.5v5.4H112.8z M133,285.1v-7.2l-0.7-0.8
	l-9.4-9.7l-6.1-20.5l0.9-14.5l14-5.5l-0.6,1l-4.2,7l31.2,14.4l-5.6,4.3l17.8,31.5L133,285.1z M174,285l-17.2-30.4l7.7-5.9
	l-32.8-15.1l1.2-1.9l44,6.4l21.6,31.9l-8,7.1l5.9,3.8L174,285z"/>
</svg>
